<svg height="100" width="100" xmlns="http://www.w3.org/2000/svg" viewBox="0 0 100 100"><defs><linearGradient y2="0%" y1="100%" x2="0%" x1="0%" id="a"><stop stop-opacity="0" stop-color="#fff" offset="0%"/><stop stop-color="#fff" offset="100%"/></linearGradient></defs><path fill="#ff0510" fill-rule="evenodd" d="M50 0c27.61 0 50 22.38 50 50 0 27.61-22.39 50-50 50S0 77.61 0 50C0 22.38 22.39 0 50 0z"/><path fill="url(#a)" opacity=".2" fill-rule="evenodd" d="M-41.57-1L96 78.43 16.57 216-121 136.57-41.57-1z"/><path stroke-linecap="round" stroke-width="3" stroke="#fff" fill="none" d="M-30 98S0 78 50 78s80 20 80 20"/><path stroke-linecap="round" stroke-width="3" stroke="#fff" fill="none" d="M31 21h38c.55 0 1 .45 1 1v59H30V22c0-.55.45-1 1-1z"/><path stroke-linecap="round" stroke-width="3" stroke="#fff" fill="none" d="M44 63h13c.55 0 1 .45 1 1v16c0 .55-.45 1-1 1H44c-.55 0-1-.45-1-1V64c0-.55.45-1 1-1zM54 45h8c.55 0 1 .45 1 1v8c0 .55-.45 1-1 1h-8c-.55 0-1-.45-1-1v-8c0-.55.45-1 1-1zM39 45h8c.55 0 1 .45 1 1v8c0 .55-.45 1-1 1h-8c-.55 0-1-.45-1-1v-8c0-.55.45-1 1-1zM54 30h8c.55 0 1 .45 1 1v8c0 .55-.45 1-1 1h-8c-.55 0-1-.45-1-1v-8c0-.55.45-1 1-1zM39 30h8c.55 0 1 .45 1 1v8c0 .55-.45 1-1 1h-8c-.55 0-1-.45-1-1v-8c0-.55.45-1 1-1z"/></svg>