<?xml version="1.0" encoding="utf-8"?>
<!-- Generator: Avocode 2.5.0 - http://avocode.com -->
<svg height="100" width="100" xmlns:xlink="http://www.w3.org/1999/xlink" xmlns="http://www.w3.org/2000/svg" viewBox="0 0 100 100">
    <defs>
        <linearGradient y2="0%" y1="100%" x2="0%" x1="0%" id="gradient-1">
            <stop stop-opacity="0" stop-color="#ffffff" offset="0%" />
            <stop stop-color="#ffffff" offset="100%" />
        </linearGradient>
    </defs>
    <path fill="#ff0510" fill-rule="evenodd" d="M 50 0 C 77.61 0 100 22.38 100 50 C 100 77.61 77.61 100 50 100 C 22.39 100 0 77.61 0 50 C 0 22.38 22.39 0 50 0 Z" />
    <path fill="url(#gradient-1)" opacity="0.2" fill-rule="evenodd" d="M -41.57 -1 C -41.57 -1 96 78.43 96 78.43 C 96 78.43 16.57 216 16.57 216 C 16.57 216 -121 136.57 -121 136.57 C -121 136.57 -41.57 -1 -41.57 -1 Z" />
    <path stroke-linejoin="miter" stroke-linecap="round" stroke-width="3" stroke="#ffffff" fill="none" fill-rule="evenodd" d="M -30 98 C -30 98 0 78 50 78 C 100 78 130 98 130 98" />
    <path stroke-linejoin="miter" stroke-linecap="round" stroke-width="3" stroke="#ffffff" fill="none" fill-rule="evenodd" d="M 31 21 C 31 21 69 21 69 21 C 69.55 21 70 21.45 70 22 C 70 22 70 81 70 81 C 70 81 30 81 30 81 C 30 81 30 22 30 22 C 30 21.45 30.45 21 31 21 Z" />
    <path stroke-linejoin="miter" stroke-linecap="round" stroke-width="3" stroke="#ffffff" fill="none" fill-rule="evenodd" d="M 44 63 C 44 63 57 63 57 63 C 57.55 63 58 63.45 58 64 C 58 64 58 80 58 80 C 58 80.55 57.55 81 57 81 C 57 81 44 81 44 81 C 43.45 81 43 80.55 43 80 C 43 80 43 64 43 64 C 43 63.45 43.45 63 44 63 Z" />
    <path stroke-linejoin="miter" stroke-linecap="round" stroke-width="3" stroke="#ffffff" fill="none" fill-rule="evenodd" d="M 54 45 C 54 45 62 45 62 45 C 62.55 45 63 45.45 63 46 C 63 46 63 54 63 54 C 63 54.55 62.55 55 62 55 C 62 55 54 55 54 55 C 53.45 55 53 54.55 53 54 C 53 54 53 46 53 46 C 53 45.45 53.45 45 54 45 Z" />
    <path stroke-linejoin="miter" stroke-linecap="round" stroke-width="3" stroke="#ffffff" fill="none" fill-rule="evenodd" d="M 39 45 C 39 45 47 45 47 45 C 47.55 45 48 45.45 48 46 C 48 46 48 54 48 54 C 48 54.55 47.55 55 47 55 C 47 55 39 55 39 55 C 38.45 55 38 54.55 38 54 C 38 54 38 46 38 46 C 38 45.45 38.45 45 39 45 Z" />
    <path stroke-linejoin="miter" stroke-linecap="round" stroke-width="3" stroke="#ffffff" fill="none" fill-rule="evenodd" d="M 54 30 C 54 30 62 30 62 30 C 62.55 30 63 30.45 63 31 C 63 31 63 39 63 39 C 63 39.55 62.55 40 62 40 C 62 40 54 40 54 40 C 53.45 40 53 39.55 53 39 C 53 39 53 31 53 31 C 53 30.45 53.45 30 54 30 Z" />
    <path stroke-linejoin="miter" stroke-linecap="round" stroke-width="3" stroke="#ffffff" fill="none" fill-rule="evenodd" d="M 39 30 C 39 30 47 30 47 30 C 47.55 30 48 30.45 48 31 C 48 31 48 39 48 39 C 48 39.55 47.55 40 47 40 C 47 40 39 40 39 40 C 38.45 40 38 39.55 38 39 C 38 39 38 31 38 31 C 38 30.45 38.45 30 39 30 Z" />
</svg>